<?xml version="1.0" encoding="utf-8"?>
<!-- Generator: Adobe Illustrator 25.2.1, SVG Export Plug-In . SVG Version: 6.00 Build 0)  -->
<svg version="1.1" id="Layer_1" xmlns="http://www.w3.org/2000/svg" xmlns:xlink="http://www.w3.org/1999/xlink" x="0px" y="0px"
	 viewBox="0 0 1136 1533" style="enable-background:new 0 0 1136 1533;" xml:space="preserve">
<style type="text/css">
	.st0{fill-rule:evenodd;clip-rule:evenodd;}
	.st1{fill-rule:evenodd;clip-rule:evenodd;fill:none;}
</style>
<desc>Created with Sketch.</desc>
<g id="a-mono_x2F_bust">
	<g id="body_x2F_mono_x2F_Gaming">
		<path id="_xD83D__xDD8D_-Ink" class="st0" d="M692.3,674.5c1.1,4.8,0.1,10.2,0.3,15.1c0.2,4.7,0.7,9.4,1.5,14
			c8.6-4.5,18.7-5.1,28.5-3.6c12.7,1.9,27.3,6,37.2,14.5c2.4,2.1,4.5,4.6,6.2,7.3c2,3.3,3.3,7,6.6,9.3c5,3.6,11.2,5,16,9
			c4.9,4.1,7.9,10.2,8.6,16.5c0.3,3.4-0.2,6.5-0.8,9.8c-0.6,3-0.3,4.2,0.5,7c0.6,2.2-0.6,4.8-2.5,6c4.1,2.8,8.1,5.7,12,8.7
			c23,17.4,42.4,39.2,55.9,64.8l0.3,0.6l0.4,0.8c3.3,6.7,11.9,26.5,12.9,30.9c0.8,2.3,1.5,4.6,2.2,7c1.8,6.2,3.4,12.5,4.6,18.8
			l0.3,1.7c1,5.3,2.8,11.6,2.5,17.3c3,15.5,5.6,31,7.9,46.6c0.3,2-0.5,3.7-1.8,4.8c3,0.5,6,1.1,9,1.7l1.7,0.4l0.9,0.2
			c6.2,1.4,12.3,3.4,16.3,8.6c4.4,5.6,4.5,12.8,0.1,18.5c-3.7,4.8-9.2,7.1-14.8,8.5c-1.1,0.3-2.2,0.5-3.4,0.8
			c-0.8,0.2-1.3-0.9-0.5-1.3l1.2-0.7l1.6-0.9c4.3-2.4,8.7-5,11.1-9.3c3.2-5.8,0.7-11.1-4.8-14c-4.6-2.5-10.3-3.1-15.4-3.9l-2.1-0.3
			c-5.4-0.9-10.8-1.4-16.2-0.8c-4.7,0.5-9.5,2.2-13.3,5l-0.4,0.3l-0.4,0.3c-3.4,2.9-8.2,9.4-1.8,11.3c4.8,1.4,10.7,1.1,15.8,1.4
			l0.7,0c4.2,0.3,8.7,0.3,13,0.8c1.5,0.2,3.1,0.4,4.6,0.8c4.3,1,2.8,6.7-1,7.1c-0.9,0.1-1.9,0.1-2.8,0.2c-2.5,1.8-5.9,2.7-8.8,3.8
			c-2.8,1.1-5.6,2.2-8.4,3.3c2.4,0.1,4.8,0.3,7.2,0.6c0.8,0.1,0.8,1.1,0,1.2c-5.8,0.6-11.6,1.2-17.4,2c-8.9,1.2-17.8,2.9-26.5,5.4
			c-6.4,1.9-12.6,4.1-18.7,6.6l-1.8,0.8l-0.8,0.3c-5.5,2.4-12.7,5.2-15.8,10.5c-1.7,2.8-2.4,7,0,9.6c2.5,2.8,7.7,2.5,11.2,2.6l0.3,0
			c7.4,0.4,14.8,0.4,22.3,0.2c15.6-0.6,31.2-2.2,46.4-5.2c2.8-0.5,4,3.7,1.2,4.3c-18,4.2-36.3,6.5-54.8,6.6l-2,0
			c-7.2,1.4-14.3,3.4-21.3,5.8l-1.4,0.5c-4.1,1.4-11.2,2.8-13.7,6.9c-1.6,2.7-1,4.6,0.6,5.9c2.8,2.2,8.8,2.6,11.7,2.8
			c11.7,0.4,23.4,0.5,35.1,0.3c5.9-0.1,11.7-0.3,17.6-0.6c5.7-0.3,11.8-1.2,17.5-0.6c2.5,0.2,3.3,3.8,0.6,4.5
			c-7,1.8-14.9,1.6-22.2,1.9l-0.8,0c-7.8,0.3-15.6,0.4-23.4,0.4c-6.7,0-13.4-0.2-20.1-0.4l-5.9-0.2l-1-0.1c-3.2-0.2-6.4-0.5-9.2-1.8
			c-2.6,4.3-0.7,10.1,2.7,13.5c3.2,3.3,7.7,4.9,12.1,5.9c0.4,0.1,0.8,0.2,1.2,0.3c9.6,2,19.4,1.8,28.4,6.2c7.6,3.7,14.5,9.9,23,11.4
			c7.6,1.3,13.1-2,17.1-8.2c0.2-0.3,0.4-0.7,0.7-1c3.2-5.1,5.5-10.8,8.8-15.8c1.7-2.6,3.6-5,6-7c1.1-0.9,8.5-4.8,9.6-6
			c5-5.1,0.6-15.9,1.9-22.3c1.5-7.5,8.1-10.1,12-15.9c7.5-11-13.1-21.3-6.9-33.4c0.1-0.1,0.2-0.3,0.3-0.3c0.5-0.3,1.4,0.1,1.4,0.8
			c-0.7,9,7.9,15.2,11,22.9c3.5,8.9-2.1,14.2-7.8,20.1c-7.4,7.6-2.2,16.1-3.8,25.2c-0.2,1.2-0.6,2.3-1,3.2c1.3,0.8,2.2,2.1,2.4,3.9
			c2.5,21.4,5.2,42.7,9.7,63.8l0.9,4.5l1.3,6c3.2,15,6.1,30,6.7,45.3c1.8,12.9,2.5,25.9,1.4,38.9c-3.2,39.6-25.3,80.9-65.4,93.1
			c-9.3,2.8-19.2,3.5-28.7,1.6c-3.3-0.7-7.8-2.2-12-4.4c0.2,2.6,0.4,5.3,0.5,7.9c1.4,1.5,2,3.8,1.2,5.7c-3.3-1.1-6.3-2.8-8.9-5.1
			l-0.4-0.4c-1.6-5.9-2.1-12.4-2.3-18.6l-0.1-1.8c-0.1-1.7-0.1-3.4-0.2-5.1c-0.3-10.3-0.1-20.6,0.4-30.8l0.4-7.6
			c0.9-17.6,1.6-35.2,1.1-52.9c-0.6-20.3-2.3-40.6-4.5-60.8c-1.1-10.4-2.4-20.8-3.7-31.2c-1-8.4-2.8-17.4-2.8-26
			c-6.7-1.4-13.3-4.2-17.5-9.8c-4.4-6-5-13.7-1.1-19.8c-3.8-5.2-0.7-10,4-13.3c-7.2-4-11.2-15-12.2-22.6c-0.7-5.2-0.9-13,1.3-18.9
			c-3.2,0.1-6.4,0.4-9.6,1c-3.7,0.6-7.3,1.6-10.9,2.8l-1.8,0.6c-0.9,0.3-1.9,0.7-3,1.1c6.5,10.7-1.8,20.4-12.5,23.2
			c-2,0.5-4.1,0.9-6.2,1.2c-4.7,0.7-9.5,0.8-14.2,1.3c-8.9,0.8-17.9,2-26.9,2.4c-2,0.1-3.2-0.8-3.8-2.1c0,0,0,0,0,0
			c-0.2-0.3-0.4-0.7-0.4-1.1c0,0,0.1,0,0.1,0.1c-0.4-2.4,1-5.3,4.2-5.7c13-1.5,26.1-1.5,39.1-2.6l0.8-0.1c4.1-0.4,8.9-1,12.1-3.6
			c3-2.4,3.3-5.5,2.1-8.3c0,0.1,0,0.1,0,0.2c-0.1,0.6-0.9,0.5-1.1,0.1c-0.8-1.1-0.9-2.3-0.8-3.3c-0.9-1-2-2-3.2-2.7
			c-5.2-3.2-12.1-4-18.1-5c-6.5-1-13.1-1.5-19.6-1.8c-12.9-0.6-25.9,0.4-38.6,2.8c-0.5,0.1-0.8-0.6-0.2-0.8c5-1.6,10-3,15.2-4.1
			c-0.1,0-0.2,0-0.4-0.1c-0.5-0.1-0.8-0.7-0.6-1.1c0-0.1,0-0.1,0.1-0.2c-2.2-1-3.1-4.4-0.5-5.7c8.2-4.2,17.9-6.2,26.9-7.9
			c8.7-1.7,17.4-2.8,26.2-3.9c14.8-1.7,31-1.7,45.3-6.4l0.6-0.2c5.8-2,12.7-6.1,13.2-12.9c0.6-10.4-14.8-7.7-21.2-7.4
			c-17.6,0.7-35.1,1.9-52.6,3.8c-3.6,0.4-7.1,0.8-10.7,1.2c-5.5,0.6-11,1.2-16.4,1.9c-3,0.4-6.2,0.9-9.3,1.4c-1,0.2-1.9,0.4-2.9,0.5
			c-0.1,0-0.1,0-0.2,0c-4.6,0.6-9.2,1.1-13.6,1c-0.5,0-0.8-0.8-0.3-1.1c5.8-2.4,12.2-3.9,18.6-5c4-3,8.8-5.3,12.7-7.6
			c5.4-3.2,11.6-7.8,17.8-9.7c2.8-2.2,5.9-3.9,8.8-5.1c-0.8-1.3-1.1-3.1-1-4.6c0.6-5.4,4.9-8.4,9.9-9.5c1.5-0.3,3.3-0.6,5.2-0.6
			c0-1,0.5-2,1.5-2.7l0.3-0.2l0.2-0.2c3.4-2.7,10-10.4,2-11c-4.3-0.3-7.9,2.8-11.2,4.9c-7,4.4-13.8,4.6-21.9,3.5l-3.6-0.5l-0.6-0.1
			c-5.8-0.8-11.7-0.9-15,5.1c-3.5,6.3-4.7,12.1-11.7,15.6c-6.7,3.3-14.2,4-20.3,8.6c-6.6,4.9-11.6,11.8-17,17.9
			c-11.9,13.4-25.5,25.3-39.6,36.5l-2.5,2c-12.9,10.2-26.3,20.3-40.8,28.2c-0.1,0-0.2,0.1-0.3,0.1c-0.4,0-0.7-0.5-0.3-0.9
			c16.9-16.4,36.7-29.8,54.1-45.7c7.7-7.1,15-14.6,22.1-22.3c6.2-6.8,11.6-14.4,18.8-20.2c3.5-2.8,7.3-5,11.5-6.5
			c3.9-1.4,8.4-2.1,12-4.3c7.1-4.2,6.4-14.2,13.5-18.8c6.1-3.9,13.5-2.5,20.3-1.5l0.8,0.1c4.4,0.6,8.9,1.1,13.1-0.7
			c4.1-1.7,7.5-4.9,11.6-6.6c5.8-2.4,14-1.8,17,4.6c2.8,6.1-1,11.6-5.6,15.7c6.2,1.1,11.6,4.1,12.1,10.2c4.5-0.2,9.1-0.3,13.6-0.5
			c15.8-0.5,31.7-1.6,47.5-1.3c-0.4-1.6-0.5-3.3-0.5-5c0-0.9,0-1.9,0.1-2.8c0.1-1.6,1.2-2.6,2.8-2.8l3.6-0.4l1.2-0.1
			c6.7-0.6,14.2-0.8,19.3,3.7c2.7,2.4,5,7.9,3.6,11.6c3.1,1.1,6.1,2.4,8.8,4.2c5.4-1.8,11-1.6,16.4,0.3l0.6,0.2
			c3.8,1.4,9.3,4.1,11.4,7.9c-5.1-34.3-11.9-68.3-20.5-102c-5.5-13.4-12.4-26.3-20.8-38.1c-21.1-29.8-51.6-50.4-78.9-74
			c-2.4,2.7-5,5.2-7.4,7.6l-1,1c-5,5-10.1,9.8-15.4,14.5c-11,9.8-22.6,18.7-34.2,27.9c-23.2,18.4-44.2,38-61.7,62.1
			c-0.3,0.4-1.2,0.2-0.9-0.4c12-28.5,36.8-50.2,59.4-70.3c11.9-10.6,24-20.9,35.4-32c5.3-5.2,10.5-10.5,15.3-16.1l1.2-1.4
			c3.2-3.7,10.6-15.1,15.5-6.9c1,1.7,1,3.9,0,5.6c-1.4,2.4-3.2,4.8-5.1,7c6.9,3.8,13.7,7.7,20.3,11.9c-0.4-2-0.3-4.3,0.1-6.5
			l0.1-0.7l0.5-2.8c0.7-4.1,1-7.9-1.5-11.9c-3.2-5-9.4-6.5-14.2-9.4c-5.6-3.3-8.5-7.8-11.5-13.4c-5.8-10.8-18.7-15.1-29.9-18.6
			l-1.4-0.4c-10.3-3.2-21.5-4.9-31.8-1.8c1,4.5,2.2,8.9,3.8,13.3c1.7,4.6,5.5,9.7,5.1,14.7c-0.3,3.4-4.4,7.1-7.8,4.5
			c-4.9-3.7-5.8-9.8-7.1-15.6c-1.3-5.6-2.1-11.3-2.4-17c-0.3-5.5-0.1-11,0.6-16.5l0.5-4l0.1-0.9c0.6-4.1,1.4-8.3,3.7-11.5
			C691.6,674.1,692.2,674.1,692.3,674.5z M551.4,651.6c0.1,0.3,0.1,0.6,0.2,1c0.3,1.4,0.5,2.7,0.4,4c0,0.5,0,1-0.1,1.4
			c-0.2,1.6-0.6,3.2-1.1,4.9c-1.1,3.7-2.3,7.4-3.7,11c-2.7,7.2-6,14-9.9,20.5c-7.2,11.8-16.3,21.6-27.1,30.1c2,1.7,4,3.4,6.1,5.2
			c9.7,8.3,19.1,17.1,28.3,26c16.2,15.9,32.1,32.1,47.6,48.7c7.7,8.2,15.2,16.5,22.6,24.8l0.2,0.3l0.3,0.3c2.7,3.2,8,10.9,11.9,9.6
			c2-0.6,4.1-3.6,5.5-5l2.5-2.6c0.8-0.9,1.7-1.8,2.5-2.6c14.6-16,28.4-32.6,41.4-50c6.3-8.5,12.4-17.1,18.3-25.9
			c3-4.5,6-9.1,8.9-13.7c2.8-4.4,5.1-9.2,9.2-12.5c3-2.4,7.3-0.2,6.5,3.8c-1.2,6.3-5.6,11.6-9,16.9c-3.4,5.3-7,10.6-10.6,15.8
			c-6.9,10.1-14.1,19.9-21.6,29.6c-6.4,8.3-13.2,16.4-20.1,24.3l-1.9,2.2c-7.4,8.5-14.7,17.5-22.9,25.2c-7.3,6.9-15.4,4.9-22.1-1.8
			c-8.5-8.5-16.3-17.7-24.5-26.5c-16.3-17.6-32.7-35.1-49.3-52.4l-5.5-5.7c-6.4-6.6-12.7-13.3-18.9-20.1l-0.8-0.9
			c-7-7.9-14.2-17.9-24.2-21.9c-0.7-0.3-0.5-1.3,0.3-1.2c6.4,1.2,11.8,4.4,16.7,8.3c4.5-7.4,8.5-15.2,12-23.2l-2.2-1
			c-16-6.9-34-13.9-51.2-12.8c-6.9,0.5-14.3,3.1-19.1,8.3c-4.3,4.7-6.5,11-10.5,16.1c-4.5,5.7-10.5,8.3-17.7,8.6l-3.5,0.1
			c-4.1,0.1-8,0.3-12.1,1.2c-11.2,2.4-23,6.4-32.3,13.1c-3.4,2.4-6.9,5.8-8.6,9.5c-1.6,3.7-2.1,7.9-2.3,11.9c-0.1,1.9,0.5,4.5,0,6.3
			c0.1-0.2,0.1-0.1,0.1,0.1c1.5,1.2,2.5,3.1,2.6,5.1c9.3-4.9,19-9.1,28.9-13c11-4.3,22.3-7.7,33.6-11c11.1-3.2,22.7-4.5,34-6.8
			c1.4-0.3,1.9,1.7,0.6,2.2c-11.9,4.6-23.4,10-35.3,14.3c-12,4.3-23.9,8.9-35.5,14.1c-22.5,10-44.2,22.7-61.9,39.9
			c-17.3,16.8-30.6,37.3-43,57.8c-12.5,20.7-23.6,42.2-33.6,64.2c-19.7,43.6-34.4,89.4-44.1,136.3c-9.4,45.6-14.7,92.8-13,139.3
			c0.8,22.1,3.5,44.3,9.8,65.5c3,10.2,6.8,20.1,11.5,29.6c5,10,11.8,18.9,16.3,29.1c0.4,0.8,0.5,1.6,0.5,2.4
			c19.5,16.9,50,5.5,71.1-4.6c48.6-23.2,96.2-48.6,141.5-77.8c44.7-28.8,87.1-60.9,128.5-94.2c-3.2-3.3-6-7-8.5-10.4
			c-5.1-6.9-9-14.8-11.6-22.9c-3.1-9.6-4.1-19.8-3.2-29.8l0.2-2.8c0.8-9.5,1.8-19,3.9-28.3c0-0.1,0.1-0.2,0.2-0.2
			c0.1,0,0.2,0.1,0.2,0.2c5.6,17.9,6,37.1,12.3,54.8c2.5,7.1,6.5,14,11.2,19.8c2,2.5,4.4,4.8,6.8,6.9c0.2-1.1,0.4-2.2,0.7-3.3
			l0.3-0.8c0.3-1,0.7-2.2,1.3-3.2c-0.8-0.2-1.6-0.5-2.3-0.8c-0.6-0.2-0.7-1.2,0-1.3c2-0.5,4-0.7,6.1-0.8c0.3-0.1,0.6-0.1,1,0
			c3.9-0.1,7.9,0.2,11.7,0.2c6.5,0.1,13,0.2,19.6,0.5c12.5,0.5,26.6,2.9,38.9,0c11.2-2.6,22.2-10.1,31.1-17.1
			c7.8-6.1,13.9-13.4,20.3-20.6c-0.5,0.1-0.9,0.1-1.4,0.2l-4.2,0.6c-5.3,0.7-11.6,1.3-15.7-1.3c-1.6-1-1.1-3.2,0.5-3.8
			c4.3-1.6,9.6-0.3,14.1-0.5c3.6-0.2,7.2-0.6,10.7-1.3c1.2-0.2,2.3-0.5,3.4-0.8c8.4-2.4,18.2-10.9,11.5-20.2c-0.2-0.3,0-0.7,0.4-0.7
			c0.2,0,0.3,0,0.4,0.1c7.6,6.3,3.6,17.5-3.5,22.3c-2.5,1.7-5.2,2.8-8.1,3.7c0.6,1,0.6,2.2,0,3.4c-5.6,10-15.1,18.8-24,25.8
			c-9.1,7.2-19.6,14.1-30.9,17.3c-13.1,3.7-27.4,0.9-40.7-0.3c-7.2-0.6-14.3-1.4-21.5-2.2c-1.9-0.2-3.9-0.4-5.9-0.6
			c1.9,2.5,3.4,5.4,4.4,7.1c3.2,5.6,0.2,13-6,14.7c-0.7,0.2-1.3,0.3-2,0.3c-1.7,3.4-5.7,5.9-9.4,4.6c-1.6-0.5-3.2-1.3-4.6-2.2
			c-23.3,20.4-47.8,39.6-73,57.6c-46.7,33.3-95.7,63.8-146.5,90.6c-11.4,6-23,11.9-34.6,17.5l-10,4.8c-11.1,5.3-22.4,10.6-34.2,13.9
			c-2.3,0.6-4.7,1.2-7.2,1.6c0,0.2,0,0.4,0,0.6c-2.2,0.3-4.1,0.3-5.8,0.1l-0.4-0.1c-14.4,1-29.8-2.5-39.1-13
			c-1.5,1.1-3.8,1.2-5.8-0.4c-10-7.8-16-19.8-21.2-31.2c-5.3-11.6-9.5-23.6-12.5-36c-6.1-24.7-8.5-50.1-8.7-75.5
			c-0.5-97.8,24-196.5,66.6-284.3c10.8-22.3,22.7-44.1,35.9-65.1c13.2-20.9,28.5-40.3,48-55.5c5.6-4.4,11.5-8.4,17.5-12.1
			c-4.1-2-5.7-7.1-6-11.7c-0.6-10.1,0.6-21.7,6.5-30.2c8.3-11.9,23.1-19.3,36.9-22.9c7.2-1.9,14.6-3,22-3.3c3.8-0.2,7.8,0.4,11.6,0
			c3.3-0.4,5.4-2.3,7.3-5c4.9-6.7,8.1-13.7,15.1-18.6c7.2-5,16.6-7,25.3-6.4c10.1,0.6,19.4,4.6,28.3,9.2c8,4.1,15.9,8.7,23.5,13.6
			c1.4-3.3,2.7-6.6,3.9-9.9c2.4-6.4,4.4-13,6.1-19.7c1.7-6.7,1.4-15.6,6.6-20.7C541.4,643.4,550,645.1,551.4,651.6z M896.9,1100.1
			L896.9,1100.1c-10.4,6.2-15.4,21.5-20.2,28.2c0.4,2.2,0.7,4.5,1.2,6.7c1.3,4.9,2.9,9.7,4.8,14.4c3.4,8.2,7.6,16.1,11.5,24
			c3.1,6.4,6.2,13,8.6,19.7c-0.3,0.3-0.5,0.6-0.7,0.9c-2.6,4.8-4.6,3.9-9.4,2.8l0,0c-2.7-8.4-6.7-16.2-10.2-24.2l-0.9-2l-0.9-2
			c-3-6.9-5.7-13.8-7.2-21.2c-1-4.7-1.4-9.5-1.5-14.3c-2.6,2.1-5.7,3.7-9.6,4.2c-8.4,1.3-16-4-22.8-8.2l-1.5-0.9
			c-4.3-2.6-8.5-5-13.5-6.2c-5.6-1.4-11.4-1.4-17.1-2.1c-0.7-0.1-1.4-0.2-2.1-0.3c2.2,7.3,3.2,15.3,4.6,22.7
			c1.8,10.3,3.3,20.7,4.8,31.1c2.8,20.1,4.8,40.4,5.7,60.7c1,19.6,0.5,39.2-0.2,58.9l-0.4,9.6c-0.3,7.8-0.5,15.6-0.4,23.4
			c0.4,0,0.8,0.1,1.1,0.2c3.9,0.9,6.6,4.9,10.2,6.7c7.6,3.8,16.8,3.7,24.9,1.8c18.4-4.4,33.7-17.2,43.8-32.9
			c12.1-18.8,16.5-41,16.4-63.1c-0.2-24.9-4.2-48.8-9.8-72.9l-0.4-1.5C901.1,1144.4,898.1,1100.3,896.9,1100.1z M381.7,1049.8
			c0.1,6.7-2.6,13.9-4.1,20.4c-1.6,7-3.2,14-4.9,21.1l-1.5,6.3c-1.2,5.2-2.4,10.5-3.5,15.8c-0.9,4.3-1.3,10-2.7,14.8
			c17.3-7,34.6-13.9,51.9-20.9c21.3-8.6,42.7-17,64.1-25.4c21.3-8.4,42.5-18,64.2-25.2c5.2-1.7,8.7,6.5,3.7,8.8
			c-22.1,10.2-45.4,18.2-68,27.2l-32.7,13c-30,11.9-60,23.7-90.1,35.2c-20.5,7.8-41,15.8-61.6,23.2c-9.9,3.5-19.8,6.9-29.6,10.5
			c-8.2,3.1-17.1,7.6-20.1,16.4c-0.2,0.5-0.8,0.3-0.7-0.2c1.2-8.5,7.6-13.9,14.7-17.9c9.5-5.4,19.9-9.3,29.9-13.6l1.4-0.6
			c20.5-8.9,41.1-17.5,61.8-25.9c-0.2-0.5-0.3-1-0.3-1.6l-0.1,0c-0.4-3.8,1.4-7.2,2.6-10.8l3.6-10.2c2.4-6.8,4.6-13.7,6.8-20.5
			c2.3-7.2,4.7-14.3,7-21.5c2-6.1,3.3-13.3,6.7-18.7C380.7,1048.7,381.8,1049.1,381.7,1049.8z M780,1034.7l-0.3,1.3
			c-0.3,1.5-0.6,3.1-0.7,4.6c-0.2,4,0.3,8.1,1.3,11.9c1,3.8,2.5,7.6,4.6,11c2,3.2,4.8,5.7,6.7,9c0.2,0.3,0.3,0.7,0.4,1
			c0.7-0.3,1.4-0.6,2.1-0.8c5.6-1.8,11.3-3.2,17.1-4.4l-0.9-0.1l-0.6,0c-9.7-0.8-18.8-4-16.8-15.3c1.1-6.4,6.1-10.6,11.5-13.7
			l0.7-0.4c0.3-0.2,0.6-0.3,0.9-0.5c-4.8-0.8-8.4-1.8-14.3-2.8C787.7,1035.1,783.8,1034.8,780,1034.7z M338.8,895.8
			c9.5,19.2,16.6,39.6,22,60.3c2.6,10,4.8,20.1,6.6,30.3l0.6,3.4l0.3,1.8c1.7,9.1,3.8,18.9,1.3,27.7c-0.8,2.9-5.6,4-6.9,0.9
			c-4.1-9.4-3.5-20.3-4.7-30.4c-1.2-10.6-2.9-21.1-5-31.6c-4-20.1-9.7-39.7-16-59.2l-0.7-2.2C335.8,895.4,338.1,894.5,338.8,895.8z
			 M703.8,981.6c-2.8,1.3-5.7,2.6-8.2,3.8c-0.2,0.1-0.4,0.2-0.6,0.3c2.8-0.5,5.7-0.9,8.5-1.4C703.5,983.4,703.6,982.5,703.8,981.6z
			 M814.5,972c-0.4,0.1-0.8,0.4-1.1,0.7l-0.2,0.2c-0.4,0.4-0.7,0.8-0.8,1.3c-0.2,0.5-0.4,1-0.3,1.5l0.1,1.1c0.2,0.7,0.5,1.3,1,1.8
			l0.8,0.6c0.5,0.3,1.1,0.5,1.8,0.5l0.3,0l0.8,0c0.5,0,0.9-0.1,1.3-0.3c0.4-0.1,0.8-0.4,1.1-0.7l0.2-0.2c0.4-0.4,0.7-0.8,0.8-1.3
			c0.2-0.4,0.3-0.8,0.3-1.3l0-0.2l-0.1-1.1c-0.2-0.6-0.4-1.1-0.9-1.6l-0.2-0.2l-0.8-0.6c-0.5-0.3-1.1-0.5-1.8-0.5l-0.3,0h-0.6
			C815.5,971.7,815,971.8,814.5,972z M788.5,970.7c-2.1,0.4-3.3,3-2.8,4.9c0.6,2.2,2.6,3.1,4.7,2.8l0.2,0c2.4-0.4,4.8-0.3,7.1,0.6
			c2,0.7,4.4-0.8,4.9-2.8c0.6-2.2-0.8-4.2-2.8-4.9C796.2,969.9,792.3,970,788.5,970.7z M367.2,828.6c4.8,7.1,7.9,16.5,10.8,24.6
			l0.3,0.8c3.2,8.5,6.2,17.1,9.1,25.7c5.7,17.2,13.1,35.2,14.5,53.4c0.3,3.4-4.9,4.7-6.4,1.7c-4.3-8.6-6.6-17.5-9.1-26.7
			c-2.4-8.7-4.9-17.5-7.5-26.2c-2.5-8.7-5-17.5-7.4-26.2c-2.4-8.5-5.8-17.9-6.3-26.8C365.1,828,366.6,827.8,367.2,828.6z
			 M476.4,771.5c6.5,4.5,11.7,11,17.2,16.6c5.5,5.7,11,11.4,16.4,17.2c9.1,9.7,18,19.6,27.1,29.2c18.3,19.1,39,36.7,64.3,45.7
			c6.1,2.2,3.4,12-2.7,9.8c-25.8-9.4-47.2-26.7-66.1-46.3c-9.8-10.1-18.8-21-27.5-32c-4.1-5.2-8.2-10.3-12.2-15.6l-2.4-3.1
			c-5-6.6-11.2-13.3-14.9-20.8C475.5,771.8,475.9,771.2,476.4,771.5z"/>
	</g>
	<g id="head_x2F_mono_x2F_Medium-3">
		<path id="_xD83C__xDFA8_-Background_1_" class="st1" d="M782.1,378.2c1.1-10.1-10.8-37.1-10.5-31.7c-19-29.3-56.1-40.8-88.1-50.5
			c-67.9-22.4-121,4.7-168.7,52.6c-28.2,26.3-55,55.7-69.1,92.1c-27.8,69.5,13.9,148.7,77.3,181.9c5.1,2.8,10.7,5.4,15.6,8.7
			c26.2,15.1,57,20.4,86.2,27C679.5,671,748.2,665,780.4,613c21.8-36.9,16-81.7,14.3-122.7C792.1,454.4,787.6,413.8,782.1,378.2z"/>
		<path id="_xD83D__xDD8D_-Ink_1_" class="st0" d="M949.2,577c0.2,0,0.4,0,0.5,0.1c0.1,0,0.2,0.1,0.3,0.2l0.8,0.8
			c0.3,0.3,0.3,0.8,0,1.1c-0.2,0.3-0.7,0.3-1,0.1l-0.1-0.1l-0.9-0.9c-0.1-0.1-0.2-0.2-0.2-0.4c0-0.1,0-0.3,0-0.5
			C948.6,577.3,948.9,577,949.2,577z M480,495.3c8-2.4,17.6,3.4,22.4,9.5c2.4,3.1,3.1,7.2,0,10.3c-2.6,2.6-7.7,3-10.3,0
			c-2.9-3.5-5.2-8.2-9.3-10.4c-4.4-2.4-10.4-1.8-11.5,4c-0.2,1-1.6,0.7-1.7-0.2C469.3,502.5,474.5,497,480,495.3z M490,275.7
			c35.4-33.1,87.7-49.1,135.6-46.3c25.9,1.5,50.9,8,74.3,19.2c7.3,3.5,14.5,7.6,21,12.4c4.4,2.1,8.8,4.3,13,6.8
			c21.1,12.2,37.3,30.7,47.8,52.6c5,10.5,8.9,21.5,11.1,32.9l0.4,1.9c1.1,5.7,3.4,13.2,0.5,18.6c-1.9,3.5-5.8,5.8-9.5,5.5
			c0.8,3.3,1.8,6.6,2.4,9.9l1.7,9c0.3,1.5,0.6,3,0.8,4.5c1.6,8.9,3.1,17.9,4.3,26.9c2.5,18.8,4.8,37.6,6.8,56.4
			c1.4,13.5,2.8,26.9,4.1,40.4l0.8,8.1c1.3,13.9,2.4,28,1.5,41.9c-1.4,21-7.8,40.1-20.3,55.7c1.2,2.9,1.6,6.1,2.5,9.7
			c1.2,4.9,2.9,9.8,4.6,14.6c0.8,1.9,1.6,3.8,2.4,5.7l2.1,5l0,0l1.6,3.3c1.8,3.6,3.5,7.2,4.6,10.9c7.1,3.8,12.9,9.9,13.1,18.4
			c0.2,7.6-3.7,15.7-10.4,19.6c-6.6,3.8-13.4,2.3-19.7-0.6c-5.5,1.6-11.4,1.8-16.9,0.1c-4.2,3.8-9.6,6.4-15.6,7.1
			c-9.1,1.1-17.7-1.5-26-4.8l-0.6-0.2c-0.3-0.1-0.5-0.2-0.8-0.3c-9.6-0.5-19.1-4.2-25.9-10.9c-2.2-2.2-4.1-4.6-5.7-7.4
			c-5.6-10.1-6.5-22.5-1-32.5c-1.2,0-2.4,0.1-3.5,0.1c-15.7,0.4-31.5-0.4-47.2-1.4l-3.7-0.3c-10.2-0.7-25.1-2.5-25.4-15
			c0-1.6,1.6-2.8,3.1-2.4c5.8,1.6,11.4,4.2,17.4,5.1c7.8,1.2,15.9,1.3,23.8,1.8l2.3,0.1c15.9,0.9,32.4,1.4,48.1-1.8
			c11.7-2.3,23.9-6.6,34.6-11.9c10.3-5.1,19.6-11.8,27.2-20.5c16.6-19.2,18.8-46.2,18-70.4c-1-29-4.4-57.9-6.3-86.8l-0.9-13
			c-0.7-10.8-1.4-21.7-1.6-32.5c-0.2-7.9-0.1-15.8,0-23.8c0-4,0-7.9,0.1-11.9c0.1-2.2,0.3-4.4,0.5-6.6c-0.9-0.5-1.7-1.1-2.4-1.9
			c-0.6-0.7-1-1.4-1.3-2.1c-3.7-1.1-5.5-2.5-7.9-5.8c-2-2.8-4.3-5.3-6.8-7.7c-5.3-5.1-11.3-9.3-17.6-12.9
			c-13.1-7.5-27.5-12.5-42-16.6c-22.2-6.3-45.3-9.5-67.8-14.6c-6.2,8.7-12.8,17.1-19.7,25.2c-21.5,25.4-46.1,48-72.5,68.1
			c-5.4,4.1-10.8,8.2-16.3,12.1c-7.3,11.1-14.6,22.1-22.1,33.1l-3.2,4.7l0,0.1c-0.4,0.7-0.9,1.3-1.3,2c-0.9,1.4-1.9,2.8-3,4.1
			c-0.7,1-1.4,2-2.1,3c1.4,0.7,2.6,1.6,3.6,2.5c2,1.9,1.6,4.8,0,6.7c-5.3,6.1-13.7-1.9-19.9-4c-6.6,2-12.2,9.9-14.9,15.9
			c-4,8.7-5.6,19.2-3.8,28.6c1.6,8.6,6.1,16,13.4,20.7c0.3,0.2,0.5,0.3,0.8,0.5c0,0,0,0,0,0c0.2,0.2,0.5,0.3,0.8,0.5
			c3.4,1.9,7.2,3,11.2,3.3c2.2,0.2,4.6,0,6.9,0.3c2.3,0.3,4.2,1.3,6.4,1.9c2.5,0.6,4,3.9,2.5,6.1c-0.8,1.1-1.5,2.1-2.2,3.1
			c2.5,3,4.7,6.3,6.7,9.4c2.7,4.3,5.1,8.8,7.3,13.5c2,2.7,4,5.4,5.8,8.2c10.7,15.8,18.8,33.4,23.8,51.7c5,18.2,8.1,38.6,3.5,57.1
			c-4.2,17.1-16.6,31.2-34.9,32.1c-3.8,0.2-7.6-0.2-11.1-1.2c-7.8,4.8-17.4,7.2-25.9,7.5c-7,0.2-14.6-1.2-20.2-5.4
			c-6.7,2.9-14,4.6-20.4,5c-7.1,0.4-14.6-1.5-20.4-5.4c-5.5,4.7-11.5,8.7-18.2,11.4c-11.6,4.7-25.5,4.1-36.1-2.9
			c-10.7-7-16.1-19.7-12.8-32.2c3-11.6,12.4-20,21.3-27.3l1.8-1.4c8.8-7.2,17.6-14.1,23.2-24.2c6-10.7,8.1-23.1,8.7-35.2
			c1.3-26.6-4.1-53-5.8-79.5c-1.7-27.4-0.8-54.8,3-82c7.2-52.8,26.3-104.5,60.9-145.7c5-6,10.3-11.6,16-17
			C480.3,285.7,484.9,280.4,490,275.7z"/>
	</g>
	<g id="face_x2F_Smile" transform="translate(531.000000, 366.000000)">
		<path id="_xD83D__xDD8D_-Ink_2_" class="st0" d="M146.6,240.9c-6.7-2.7-12.7-7.3-17.1-13.2c-1.5-2-1.9-4.2-1.6-6.1
			c0.4-2.2,1.7-4.2,3.4-5.5c1.8-1.3,4-2,6.2-1.7c1.9,0.3,3.7,1.3,5.2,3.5l0.3,0.4c2.6,3.5,6,6.4,9.9,8.3c3.7,1.8,7.9,2.6,12.2,2.1
			c8.2-0.9,13.9-5.4,19.9-11.4c0.7-0.8,1.5-1.5,2.2-2.3c0.5-0.7,1.1-1.2,1.9-1.4c0.8-0.3,1.7-0.3,2.6,0c0.8,0.3,1.5,0.8,2,1.5
			c0.5,0.7,0.7,1.5,0.6,2.5c-0.6,6.3-3.8,11.8-8.5,16.2c-5.2,4.9-12,8.2-18.4,9.4C160.4,244.5,153.1,243.6,146.6,240.9L146.6,240.9z
			 M170.8,144.4c7.6,4.6,19.1,15.3,10.9,26.7c-9.6,10-23.3-1.5-30.1-6.7c-6.3-4-13.4,6.3-7.5,11c49,36.3,68.9-29.8,30.5-36.4
			C170.4,138.2,168.8,142.9,170.8,144.4z M83,102.1c0.8-10.4,16.6-12.7,18.2-2.5c1.4,9.2-0.2,17.6-4.4,25.9c-4,7.9-13.9,4.2-14.6-3
			C81.1,112.9,82.4,108.6,83,102.1z M203,97.6c2.2-2.9,5.4-4.8,9.2-3.7c11.9,3.5,8.4,20.3,4.2,28.6c-2.3,4.5-9.6,5.6-12.9,1.7
			c-5.4-6.4-8-19.2-1.1-25.5C202.6,98.2,202.8,97.9,203,97.6z M96.6,56.8l1.9-0.3c5.8-1,13-2,17.1,2.7c2.2,2.5,2.9,7.1,0,9.4
			c-5.2,4.2-10.8,2.6-17,2.9c-5.1,0.3-10,1.1-14.9,2.5C72.9,77.2,64.2,82.8,55,88.9c-1.2,0.8-2.4-0.7-1.9-1.9
			C58.4,76.7,68.7,68.2,79,63C84.5,60.2,90.5,57.9,96.6,56.8z M192.2,52.2l1.4,0.3c15.6,3.3,36,9.8,43.4,25.2c0.3,2.2,0,2.6-0.3,2.9
			l-0.1,0.1c-0.2,0.3-0.4,0.6-1.3,0.9c-0.3-0.1-0.5-0.1-0.8-0.2c-3.4-0.9-6.1-2.1-8.7-3.4l-2.8-1.4c-3.3-1.6-6.6-3.1-10.1-4.3
			c-7.5-2.4-15.1-4.1-22.9-5.1c-1.7-0.2-3.3-0.8-4.6-1.7c-1.2-0.9-2.1-2.2-2.6-3.9c-0.5-2.2-0.4-3.9,0.8-5.9
			c0.9-1.5,2.2-2.5,3.6-3.1C188.8,52,190.5,51.8,192.2,52.2z"/>
	</g>
	<g id="facial-hair_x2F__x2A_-None" transform="translate(494.999934, 517.999659)">
	</g>
	<g id="accessories_x2F__x2A_-None" transform="translate(419.000000, 421.000000)">
	</g>
</g>
<path class="st0" d="M490,275.7c35.4-33.1,87.7-49.1,135.6-46.3c25.9,1.5,50.9,8,74.3,19.2c7.3,3.5,14.5,7.6,21,12.4
	c4.4,2.1,8.8,4.3,13,6.8c21.1,12.2,37.3,30.7,47.8,52.6c5,10.5,8.9,21.5,11.1,32.9l0.4,1.9c1.1,5.7,3.4,13.2,0.5,18.6
	c-1.9,3.5-5.8,5.8-9.5,5.5c0.8,3.3,1.8,6.6,2.4,9.9l1.7,9c0.3,1.5,0.6,3,0.8,4.5c1.6,8.9,3.1,17.9,4.3,26.9
	c2.5,18.8,4.8,37.6,6.8,56.4c1.4,13.5,2.8,26.9,4.1,40.4l0.8,8.1c1.3,13.9,2.4,28,1.5,41.9c-1.4,21-7.8,40.1-20.3,55.7
	c1.2,2.9,1.6,6.1,2.5,9.7c1.2,4.9,2.9,9.8,4.6,14.6c0.8,1.9,1.6,3.8,2.4,5.7l2.1,5l0,0l1.6,3.3c1.8,3.6,3.5,7.2,4.6,10.9
	c7.1,3.8,12.9,9.9,13.1,18.4c0.2,7.6-3.7,15.7-10.4,19.6c-6.6,3.8-13.4,2.3-19.7-0.6c-5.5,1.6-11.4,1.8-16.9,0.1
	c-4.2,3.8-9.6,6.4-15.6,7.1c-9.1,1.1-17.7-1.5-26-4.8l-0.6-0.2c-0.3-0.1-0.5-0.2-0.8-0.3c-9.6-0.5-19.1-4.2-25.9-10.9
	c-2.2-2.2-4.1-4.6-5.7-7.4c-5.6-10.1-6.5-22.5-1-32.5c-1.2,0-2.4,0.1-3.5,0.1c-15.7,0.4-31.5-0.4-47.2-1.4l-3.7-0.3
	c-10.2-0.7-25.1-2.5-25.4-15c0-1.6,1.6-2.8,3.1-2.4c5.8,1.6,11.4,4.2,17.4,5.1c7.8,1.2,15.9,1.3,23.8,1.8l2.3,0.1
	c15.9,0.9,32.4,1.4,48.1-1.8c11.7-2.3,23.9-6.6,34.6-11.9c10.3-5.1,19.6-11.8,27.2-20.5c16.6-19.2,18.8-46.2,18-70.4
	c-1-29-4.4-57.9-6.3-86.8l-0.9-13c-0.7-10.8-1.4-21.7-1.6-32.5c-0.2-7.9-0.1-15.8,0-23.8c0-4,0-7.9,0.1-11.9
	c0.1-2.2,0.3-4.4,0.5-6.6c-0.9-0.5-1.7-1.1-2.4-1.9c-0.6-0.7-1-1.4-1.3-2.1c-3.7-1.1-5.5-2.5-7.9-5.8c-2-2.8-4.3-5.3-6.8-7.7
	c-5.3-5.1-11.3-9.3-17.6-12.9c-13.1-7.5-27.5-12.5-42-16.6c-22.2-6.3-45.3-9.5-67.8-14.6c-6.2,8.7-12.8,17.1-19.7,25.2
	c-21.5,25.4-46.1,48-72.5,68.1c-5.4,4.1-10.8,8.2-16.3,12.1c-7.3,11.1-14.6,22.1-22.1,33.1l-3.2,4.7l0,0.1c-0.4,0.7-0.9,1.3-1.3,2
	c-0.9,1.4-1.9,2.8-3,4.1c-0.7,1-1.4,2-2.1,3c1.4,0.7,2.6,1.6,3.6,2.5c2,1.9,1.6,4.8,0,6.7c-5.3,6.1-13.7-1.9-19.9-4
	c-6.6,2-12.2,9.9-14.9,15.9c-4,8.7-5.6,19.2-3.8,28.6c1.6,8.6,6.1,16,13.4,20.7c0.3,0.2,0.5,0.3,0.8,0.5c0,0,0,0,0,0
	c0.2,0.2,0.5,0.3,0.8,0.5c3.4,1.9,7.2,3,11.2,3.3c2.2,0.2,4.6,0,6.9,0.3c2.3,0.3,4.2,1.3,6.4,1.9c2.5,0.6,4,3.9,2.5,6.1
	c-0.8,1.1-1.5,2.1-2.2,3.1c2.5,3,4.7,6.3,6.7,9.4c2.7,4.3,5.1,8.8,7.3,13.5c2,2.7,4,5.4,5.8,8.2c10.7,15.8,18.8,33.4,23.8,51.7
	c5,18.2,8.1,38.6,3.5,57.1c-4.2,17.1-16.6,31.2-34.9,32.1c-3.8,0.2-7.6-0.2-11.1-1.2c-7.8,4.8-17.4,7.2-25.9,7.5
	c-7,0.2-14.6-1.2-20.2-5.4c-6.7,2.9-14,4.6-20.4,5c-7.1,0.4-14.6-1.5-20.4-5.4c-5.5,4.7-11.5,8.7-18.2,11.4
	c-11.6,4.7-25.5,4.1-36.1-2.9c-10.7-7-16.1-19.7-12.8-32.2c3-11.6,12.4-20,21.3-27.3l1.8-1.4c8.8-7.2,17.6-14.1,23.2-24.2
	c6-10.7,8.1-23.1,8.7-35.2c1.3-26.6-4.1-53-5.8-79.5c-1.7-27.4-0.8-54.8,3-82c7.2-52.8,26.3-104.5,60.9-145.7c5-6,10.3-11.6,16-17
	C480.3,285.7,484.9,280.4,490,275.7z"/>
</svg>
